<svg xmlns="http://www.w3.org/2000/svg" font-family="-apple-system, system-ui, sans-serif" viewBox="0 0 800 200"><defs><marker id="arrowhead" markerHeight="7" markerWidth="10" orient="auto" refX="10" refY="3.5"><path fill="#666" d="m0 0 10 3.5L0 7z"/></marker><style>.box{fill:#1a1a1a;stroke:#0071e3;stroke-width:2}.label,.sub{fill:#e0e0e0;font-size:13px;text-anchor:middle}.sub{fill:#888;font-size:10px}.arrow{stroke:#666;stroke-width:2;fill:none;marker-end:url(#arrowhead)}</style></defs><path fill="#111" d="M0 0h800v200H0z"/><rect width="110" height="50" x="20" y="75" class="box" rx="8"/><text x="75" y="97" class="label">Search Query</text><text x="75" y="113" class="sub">user input</text><path d="M132 100h36" class="arrow"/><rect width="110" height="50" x="170" y="75" class="box" rx="8"/><text x="225" y="97" class="label">API Router</text><text x="225" y="113" class="sub">serverless fn</text><path d="m282 88 36-33" class="arrow"/><path d="m282 112 36 33" class="arrow"/><rect width="140" height="45" x="320" y="30" class="box" rx="8"/><text x="390" y="50" class="label">DuckDuckGo</text><text x="390" y="65" class="sub">web search</text><rect width="140" height="45" x="320" y="125" class="box" rx="8"/><text x="390" y="145" class="label">Local Index</text><text x="390" y="160" class="sub">file search</text><path d="m462 55 36 33" class="arrow"/><path d="m462 145 36-33" class="arrow"/><rect width="120" height="50" x="500" y="75" class="box" rx="8"/><text x="560" y="97" class="label">Merger</text><text x="560" y="113" class="sub">rank + dedupe</text><path d="M622 100h36" class="arrow"/><rect width="120" height="50" x="660" y="75" class="box" rx="8"/><text x="720" y="97" class="label">Mind Map</text><text x="720" y="113" class="sub">D3 + canvas</text></svg>