<svg xmlns="http://www.w3.org/2000/svg" viewBox="0 0 200 200"><circle cx="100" cy="100" r="96" fill="#f5f5f7" stroke="#e0e0e0"/><path stroke="#0071e3" stroke-width="1.5" d="M100 100 42 52m58 48 58-48m-58 48-58 48m58-48 58 48m-58-48V30m0 70v70m0-70H30m70 0h70" opacity=".25"/><path stroke="#0071e3" stroke-dasharray="3,3" d="m42 52 58-22m0 0 58 22m0 0 12 48m0 0-12 48m0 0-58 22m0 0-58-22m0 0-12-48m0 0 12-48" opacity=".12"/><circle cx="42" cy="52" r="10" fill="rgba(255,255,255,0.72)" stroke="#0071e3" stroke-width="1.5"/><circle cx="158" cy="52" r="10" fill="rgba(255,255,255,0.72)" stroke="#0071e3" stroke-width="1.5"/><circle cx="42" cy="148" r="8" fill="rgba(255,255,255,0.72)" stroke="#0071e3" stroke-width="1.5"/><circle cx="158" cy="148" r="8" fill="rgba(255,255,255,0.72)" stroke="#0071e3" stroke-width="1.5"/><circle cx="100" cy="30" r="9" fill="rgba(255,255,255,0.72)" stroke="#0071e3" stroke-width="1.5"/><circle cx="100" cy="170" r="7" fill="rgba(255,255,255,0.72)" stroke="#0071e3" stroke-width="1.5"/><circle cx="30" cy="100" r="7" fill="rgba(255,255,255,0.72)" stroke="#0071e3" stroke-width="1.5"/><circle cx="170" cy="100" r="9" fill="rgba(255,255,255,0.72)" stroke="#0071e3" stroke-width="1.5"/><rect width="56" height="40" x="72" y="80" fill="rgba(255,255,255,0.85)" stroke="#0071e3" stroke-width="2" rx="8"/><circle cx="95" cy="97" r="8" fill="none" stroke="#0071e3" stroke-linecap="round" stroke-width="2.5"/><path stroke="#0071e3" stroke-linecap="round" stroke-width="2.5" d="m101 103 8 8"/><path stroke="#86868b" stroke-linecap="round" stroke-width="1.5" d="M36 51h12m104 0h12M94 29h12m58 70h12" opacity=".5"/></svg>