<svg xmlns="http://www.w3.org/2000/svg" width="720" height="380" style="font-family:monospace;background:#f8fafc;border-radius:12px" viewBox="0 0 720 380"><text x="360" y="28" fill="#1e293b" font-size="13" font-weight="bold" text-anchor="middle">acupuncture -- Reflexology &amp; Acupuncture Reference</text><rect width="140" height="36" x="290" y="48" fill="#2472b2" rx="8"/><text x="360" y="70" fill="#fff" font-size="11" font-weight="bold" text-anchor="middle">React + Vite</text><path stroke="#94a3b8" stroke-dasharray="5,3" stroke-width="1.5" d="M310 84 80 130m100-46-40 46m80-46 60 46m80-46 200 46"/><rect width="120" height="50" x="20" y="130" fill="#1a5a96" rx="8"/><text x="80" y="152" fill="#fff" font-size="10" font-weight="bold" text-anchor="middle">Foot Map</text><text x="80" y="166" fill="#dbeafe" font-size="8" text-anchor="middle">16 SVG zones</text><rect width="120" height="50" x="160" y="130" fill="#1a5a96" rx="8"/><text x="220" y="152" fill="#fff" font-size="10" font-weight="bold" text-anchor="middle">Hand Map</text><text x="220" y="166" fill="#dbeafe" font-size="8" text-anchor="middle">11 SVG zones</text><rect width="120" height="50" x="300" y="130" fill="#1a5a96" rx="8"/><text x="360" y="152" fill="#fff" font-size="10" font-weight="bold" text-anchor="middle">Acupuncture</text><text x="360" y="166" fill="#dbeafe" font-size="8" text-anchor="middle">11 meridians, 35+ pts</text><rect width="120" height="50" x="440" y="130" fill="#1a5a96" rx="8"/><text x="500" y="152" fill="#fff" font-size="10" font-weight="bold" text-anchor="middle">Symptoms</text><text x="500" y="166" fill="#dbeafe" font-size="8" text-anchor="middle">12 conditions</text><rect width="120" height="50" x="580" y="130" fill="#1a5a96" rx="8"/><text x="640" y="152" fill="#fff" font-size="10" font-weight="bold" text-anchor="middle">History</text><text x="640" y="166" fill="#dbeafe" font-size="8" text-anchor="middle">Session tracker</text><rect width="300" height="45" x="60" y="220" fill="#16a34a" rx="8"/><text x="210" y="245" fill="#fff" font-size="10" font-weight="bold" text-anchor="middle">Interactive SVG Body Maps</text><text x="210" y="257" fill="#dcfce7" font-size="8" text-anchor="middle">Clickable zones with color-coded body systems</text><rect width="300" height="45" x="380" y="220" fill="#d4a843" rx="8"/><text x="530" y="245" fill="#fff" font-size="10" font-weight="bold" text-anchor="middle">SessionContext (localStorage)</text><text x="530" y="257" fill="#fef3c7" font-size="8" text-anchor="middle">Log, track, delete sessions</text><rect width="640" height="36" x="40" y="310" fill="#f1f5f9" stroke="#e2e8f0" rx="8"/><text x="360" y="332" fill="#475569" font-size="9" text-anchor="middle">React Router | PWA | Dark Editorial BC Gov Blue | Mobile-first | animate.css</text></svg>