<svg xmlns="http://www.w3.org/2000/svg" width="600" height="300" viewBox="0 0 600 300"><path fill="#fff" d="M0 0h600v300H0z"/><rect width="120" height="50" x="40" y="40" fill="none" stroke="#333" stroke-width="1.5" rx="8"/><text x="100" y="70" style="font-family:-apple-system,system-ui,sans-serif;font-size:13px;fill:#333;text-anchor:middle">Landing</text><rect width="120" height="50" x="240" y="40" fill="none" stroke="#333" stroke-width="1.5" rx="8"/><text x="300" y="70" style="font-family:-apple-system,system-ui,sans-serif;font-size:13px;fill:#333;text-anchor:middle">Quiz (6 pages)</text><rect width="120" height="50" x="440" y="40" fill="none" stroke="#333" stroke-width="1.5" rx="8"/><text x="500" y="70" style="font-family:-apple-system,system-ui,sans-serif;font-size:13px;fill:#333;text-anchor:middle">Results</text><path stroke="#333" marker-end="url(#a)" d="M160 65h80"/><path stroke="#333" marker-end="url(#a)" d="M360 65h80"/><rect width="160" height="40" x="220" y="140" fill="none" stroke="#999" rx="6"/><text x="300" y="165" style="font-family:-apple-system,system-ui,sans-serif;font-size:11px;fill:#666;text-anchor:middle">localStorage (ans, pg)</text><path stroke="#999" stroke-dasharray="4,3" d="M300 90v50"/><rect width="160" height="40" x="220" y="210" fill="none" stroke="#999" rx="6"/><text x="300" y="228" style="font-family:-apple-system,system-ui,sans-serif;font-size:11px;fill:#666;text-anchor:middle">Scoring: S[] matrix</text><text x="300" y="242" style="font-family:-apple-system,system-ui,sans-serif;font-size:10px;fill:#999;text-anchor:middle">econ + social axes</text><path stroke="#999" stroke-dasharray="4,3" d="M300 180v30"/><rect width="120" height="40" x="440" y="140" fill="none" stroke="#999" rx="6"/><text x="500" y="165" style="font-family:-apple-system,system-ui,sans-serif;font-size:11px;fill:#666;text-anchor:middle">SVG Compass</text><path stroke="#999" stroke-dasharray="4,3" d="M500 90v50"/><rect width="120" height="40" x="440" y="210" fill="none" stroke="#999" rx="6"/><text x="500" y="235" style="font-family:-apple-system,system-ui,sans-serif;font-size:11px;fill:#666;text-anchor:middle">Canvas PNG</text><path stroke="#999" stroke-dasharray="4,3" d="M500 180v30"/><defs><marker id="a" markerHeight="6" markerWidth="6" orient="auto" refX="10" refY="5" viewBox="0 0 10 10"><path fill="#333" d="m0 0 10 5-10 5z"/></marker></defs></svg>