<svg xmlns="http://www.w3.org/2000/svg" width="200" height="200" viewBox="0 0 200 200">
  <rect width="200" height="200" rx="36" style="fill:#0c1220"/>
  <rect x="96" y="40" width="8" height="90" rx="3" style="fill:#1a5a96"/>
  <rect x="54" y="58" width="92" height="6" rx="3" style="fill:#2472b2"/>
  <circle cx="100" cy="61" r="7" style="fill:#0c1220;stroke:#4e9cd7;stroke-width:2.5"/>
  <line x1="68" y1="64" x2="64" y2="104" style="stroke:#1a5a96;stroke-width:1.8"/>
  <line x1="80" y1="64" x2="84" y2="104" style="stroke:#1a5a96;stroke-width:1.8"/>
  <line x1="120" y1="64" x2="116" y2="104" style="stroke:#1a5a96;stroke-width:1.8"/>
  <line x1="132" y1="64" x2="136" y2="104" style="stroke:#1a5a96;stroke-width:1.8"/>
  <path d="M58,104 Q72,118 86,104" style="fill:rgba(36,114,178,0.18);stroke:#4e9cd7;stroke-width:2.5;stroke-linecap:round"/>
  <path d="M114,104 Q128,118 142,104" style="fill:rgba(36,114,178,0.18);stroke:#4e9cd7;stroke-width:2.5;stroke-linecap:round"/>
  <rect x="97" y="130" width="6" height="16" rx="2" style="fill:#1a5a96"/>
  <rect x="76" y="146" width="48" height="7" rx="3.5" style="fill:#1a5a96"/>
  <rect x="62" y="164" width="76" height="4" rx="2" style="fill:#1f3050"/>
  <rect x="70" y="172" width="60" height="4" rx="2" style="fill:#1f3050"/>
  <rect x="62" y="180" width="42" height="4" rx="2" style="fill:#1f3050"/>
</svg>
