<svg xmlns="http://www.w3.org/2000/svg" viewBox="0 0 200 200" width="200" height="200">
  <rect width="200" height="200" rx="44" fill="#0c0c0e"/>
  <rect x="28" y="52" width="144" height="104" rx="10" fill="none" stroke="#2a2a30" stroke-width="1.5"/>
  <rect x="28" y="52" width="144" height="28" rx="0" fill="#18181d"/>
  <rect x="28" y="52" width="144" height="28" rx="10" fill="#18181d"/>
  <rect x="28" y="66" width="144" height="14" fill="#18181d"/>
  <rect x="40" y="62" width="24" height="8" rx="2" fill="#c0392b" opacity="0.85"/>
  <rect x="70" y="62" width="40" height="8" rx="2" fill="#2a2a30"/>
  <rect x="40" y="98" width="120" height="2" rx="1" fill="#2a2a30"/>
  <rect x="40" y="110" width="90" height="2" rx="1" fill="#2a2a30"/>
  <rect x="40" y="122" width="70" height="2" rx="1" fill="#2a2a30"/>
  <rect x="40" y="134" width="100" height="2" rx="1" fill="#2a2a30"/>
  <text x="100" y="88" text-anchor="middle" fill="#f0f0f0" font-family="-apple-system, sans-serif" font-size="11" font-weight="700" letter-spacing="0.08em">CASE-0001</text>
  <circle cx="158" cy="148" r="18" fill="#c0392b" opacity="0.15"/>
  <text x="158" y="153" text-anchor="middle" fill="#c0392b" font-family="-apple-system, sans-serif" font-size="14" font-weight="800">!</text>
</svg>
