<svg xmlns="http://www.w3.org/2000/svg" width="200" height="200" viewBox="0 0 200 200"><rect width="200" height="200" fill="#0c1220" rx="32"/><rect width="150" height="100" x="25" y="28" fill="#111827" stroke="#1a5a96" stroke-width="1" opacity=".9" rx="8"/><circle cx="41" cy="41" r="3.5" fill="#ff5f57" opacity=".7"/><circle cx="53" cy="41" r="3.5" fill="#febc2e" opacity=".7"/><circle cx="65" cy="41" r="3.5" fill="#28c840" opacity=".7"/><text x="40" y="65" fill="#4e9cd7" font-family="monospace" font-size="11" opacity=".9">$ pulse</text><text x="40" y="80" fill="#3d9e6a" font-family="monospace" font-size="9" opacity=".6">LI-4  Hegu</text><text x="40" y="93" fill="#d4a843" font-family="monospace" font-size="9" opacity=".5">ST-36 Zusanli</text><text x="40" y="106" fill="#c44040" font-family="monospace" font-size="9" opacity=".4">HT-7  Shenmen</text><text x="40" y="119" fill="#8b6cc1" font-family="monospace" font-size="9" opacity=".35">LU-7  Lieque</text><path d="M70 155 Q80 145 90 155 Q100 165 110 155 Q120 145 130 155" fill="none" stroke="#2472b2" stroke-width="2" opacity=".6"/><path d="M70 165 Q80 155 90 165 Q100 175 110 165 Q120 155 130 165" fill="none" stroke="#4e9cd7" stroke-width="1.5" opacity=".35"/><circle cx="90" cy="155" r="3" fill="#3d9e6a" opacity=".5"/><circle cx="110" cy="155" r="3" fill="#d4a843" opacity=".5"/><circle cx="100" cy="162" r="2.5" fill="#c44040" opacity=".4"/></svg>
