<svg xmlns="http://www.w3.org/2000/svg" viewBox="0 0 200 200" style="background:#1a1a2e;border-radius:32px">
  <rect width="200" height="200" rx="32" fill="#1a1a2e"/>
  <circle cx="100" cy="100" r="50" fill="none" stroke="#0a84ff" stroke-width="2" opacity="0.3"/>
  <circle cx="100" cy="100" r="30" fill="none" stroke="#0a84ff" stroke-width="2" opacity="0.5"/>
  <circle cx="100" cy="100" r="6" fill="#0a84ff"/>
  <line x1="100" y1="70" x2="100" y2="50" stroke="#0a84ff" stroke-width="1.5" opacity="0.6"/>
  <line x1="130" y1="100" x2="150" y2="100" stroke="#0a84ff" stroke-width="1.5" opacity="0.6"/>
  <line x1="100" y1="130" x2="100" y2="150" stroke="#0a84ff" stroke-width="1.5" opacity="0.6"/>
  <line x1="70" y1="100" x2="50" y2="100" stroke="#0a84ff" stroke-width="1.5" opacity="0.6"/>
  <line x1="121" y1="79" x2="135" y2="65" stroke="#0a84ff" stroke-width="1.5" opacity="0.6"/>
  <line x1="121" y1="121" x2="135" y2="135" stroke="#0a84ff" stroke-width="1.5" opacity="0.6"/>
  <line x1="79" y1="121" x2="65" y2="135" stroke="#0a84ff" stroke-width="1.5" opacity="0.6"/>
  <line x1="79" y1="79" x2="65" y2="65" stroke="#0a84ff" stroke-width="1.5" opacity="0.6"/>
  <circle cx="100" cy="50" r="4" fill="#0a84ff" opacity="0.7"/>
  <circle cx="150" cy="100" r="4" fill="#0a84ff" opacity="0.7"/>
  <circle cx="100" cy="150" r="4" fill="#0a84ff" opacity="0.7"/>
  <circle cx="50" cy="100" r="4" fill="#0a84ff" opacity="0.7"/>
  <circle cx="135" cy="65" r="3" fill="#0a84ff" opacity="0.5"/>
  <circle cx="135" cy="135" r="3" fill="#0a84ff" opacity="0.5"/>
  <circle cx="65" cy="135" r="3" fill="#0a84ff" opacity="0.5"/>
  <circle cx="65" cy="65" r="3" fill="#0a84ff" opacity="0.5"/>
  <text x="100" y="108" text-anchor="middle" font-family="-apple-system,system-ui,sans-serif" font-size="16" font-weight="700" fill="white" letter-spacing="-0.5">N</text>
</svg>
