<svg xmlns="http://www.w3.org/2000/svg" font-family="-apple-system, system-ui, sans-serif" viewBox="0 0 800 200"><defs><marker id="arrowhead" markerHeight="7" markerWidth="10" orient="auto" refX="10" refY="3.5"><path fill="#666" d="m0 0 10 3.5L0 7z"/></marker><style>.box{fill:#1a1a1a;stroke:#0071e3;stroke-width:2}.label,.sub{fill:#e0e0e0;font-size:13px;text-anchor:middle}.sub{fill:#888;font-size:10px}.arrow{stroke:#666;stroke-width:2;fill:none;marker-end:url(#arrowhead)}</style></defs><path fill="#111" d="M0 0h800v200H0z"/><rect width="130" height="50" x="20" y="70" class="box" rx="8"/><text x="85" y="92" class="label">Topic Selector</text><text x="85" y="108" class="sub">40+ topics</text><path d="M152 95h36" class="arrow"/><rect width="130" height="50" x="190" y="70" class="box" rx="8"/><text x="255" y="92" class="label">Content Loader</text><text x="255" y="108" class="sub">JSON modules</text><path d="M322 95h36" class="arrow"/><rect width="130" height="50" x="360" y="70" class="box" rx="8"/><text x="425" y="92" class="label">Quiz Engine</text><text x="425" y="108" class="sub">330+ questions</text><path d="M492 95h36" class="arrow"/><rect width="130" height="50" x="530" y="70" class="box" rx="8"/><text x="595" y="92" class="label">Progress</text><text x="595" y="108" class="sub">scores + streaks</text><path d="M662 95h36" class="arrow"/><rect width="80" height="50" x="700" y="70" class="box" rx="8"/><text x="740" y="92" class="label">Storage</text><text x="740" y="108" class="sub">localStorage</text></svg>