<svg xmlns="http://www.w3.org/2000/svg" style="background:#fff" viewBox="0 0 800 500"><style>.node{fill:#f5f5f7;stroke:#d1d1d6;stroke-width:1.5;rx:12}.label,.sublabel{font-family:-apple-system,sans-serif;font-size:13px;fill:#1d1d1f;text-anchor:middle}.sublabel{font-size:10px;fill:#86868b}.arrow{stroke:#86868b;stroke-width:1.5;fill:none;marker-end:url(#arrowhead)}.group{fill:none;stroke:#e5e5ea;stroke-width:1;stroke-dasharray:4;rx:16}</style><defs><marker id="arrowhead" markerHeight="6" markerWidth="8" orient="auto" refX="8" refY="3"><path fill="#86868b" d="m0 0 8 3-8 3"/></marker></defs><path d="M20 20h760v70H20z" class="group"/><text x="50" y="15" class="sublabel">SwiftUI App</text><path d="M40 35h140v40H40z" class="node"/><text x="110" y="60" class="label">TimesSquareSimApp</text><path d="M200 35h140v40H200z" class="node"/><text x="270" y="60" class="label">UIViewRepresentable</text><path d="M360 35h100v40H360z" class="node"/><text x="410" y="60" class="label">HUDView</text><path d="M480 35h100v40H480z" class="node"/><text x="530" y="60" class="label">BuildMenu</text><path d="M600 35h100v40H600z" class="node"/><text x="650" y="60" class="label">TutorialView</text><path d="M20 120h760v70H20z" class="group"/><text x="50" y="115" class="sublabel">SpriteKit Scenes</text><path d="M40 135h120v40H40z" class="node"/><text x="100" y="160" class="label">MenuScene</text><path d="M180 135h120v40H180z" class="node"/><text x="240" y="160" class="label">GameScene</text><path d="M320 135h120v40H320z" class="node"/><text x="380" y="160" class="label">InputHandler</text><text x="380" y="172" class="sublabel">Gesture Recognizers</text><path d="M460 135h120v40H460z" class="node"/><text x="520" y="160" class="label">CameraController</text><path d="M20 220h760v70H20z" class="group"/><text x="50" y="215" class="sublabel">Game Systems</text><path d="M40 235h100v40H40z" class="node"/><text x="90" y="260" class="label">TimeSystem</text><path d="M160 235h100v40H160z" class="node"/><text x="210" y="260" class="label">NeedsSystem</text><path d="M280 235h100v40H280z" class="node"/><text x="330" y="260" class="label">JobSystem</text><path d="M400 235h120v40H400z" class="node"/><text x="460" y="260" class="label">ResourceSystem</text><path d="M540 235h100v40H540z" class="node"/><text x="590" y="260" class="label">BuildSystem</text><path d="M660 235h100v40H660z" class="node"/><text x="710" y="260" class="label">Pathfinder</text><path d="M20 320h380v70H20z" class="group"/><text x="50" y="315" class="sublabel">World</text><path d="M40 335h100v40H40z" class="node"/><text x="90" y="360" class="label">TileMap</text><path d="M160 335h110v40H160z" class="node"/><text x="215" y="360" class="label">WorldGenerator</text><path d="M290 335h90v40h-90z" class="node"/><text x="335" y="360" class="label">TileType</text><path d="M420 320h360v70H420z" class="group"/><text x="450" y="315" class="sublabel">Models</text><path d="M440 335h100v40H440z" class="node"/><text x="490" y="360" class="label">GameState</text><path d="M560 335h100v40H560z" class="node"/><text x="610" y="360" class="label">SaveManager</text><path d="M680 335h80v40h-80z" class="node"/><text x="720" y="360" class="label">Models</text><path d="M20 420h760v60H20z" class="group"/><text x="50" y="415" class="sublabel">Entities (UIColor)</text><path d="M40 435h100v30H40z" class="node"/><text x="90" y="455" class="label">ColonistNode</text><path d="M160 435h100v30H160z" class="node"/><text x="210" y="455" class="label">BuildingNode</text><path d="M280 435h100v30H280z" class="node"/><text x="330" y="455" class="label">ResourceNode</text><path d="m270 75-30 60" class="arrow"/><path d="m410 75-30 60" class="arrow"/><path d="m240 175-30 60" class="arrow"/><path d="M380 175v60" class="arrow"/><path d="M240 175 90 335" class="arrow"/><path d="m240 175 250 160" class="arrow"/></svg>