<svg xmlns="http://www.w3.org/2000/svg" width="800" height="500" viewBox="0 0 800 500"><path fill="#fff" d="M0 0h800v500H0z"/><text x="400" y="35" fill="#1d1d1f" font-family="-apple-system, Helvetica" font-size="18" font-weight="600" text-anchor="middle">Browser iOS Architecture</text><rect width="700" height="80" x="50" y="60" fill="#f5f5f7" stroke="#d2d2d7" stroke-width="1.5" rx="12"/><text x="400" y="85" fill="#1d1d1f" font-family="-apple-system, Helvetica" font-size="13" font-weight="600" text-anchor="middle">SwiftUI Chrome</text><rect width="110" height="30" x="70" y="100" fill="#fff" stroke="#d2d2d7" rx="6"/><text x="125" y="120" fill="#1d1d1f" font-family="-apple-system, Helvetica" font-size="11" text-anchor="middle">BrowserView</text><rect width="110" height="30" x="200" y="100" fill="#fff" stroke="#d2d2d7" rx="6"/><text x="255" y="120" fill="#1d1d1f" font-family="-apple-system, Helvetica" font-size="11" text-anchor="middle">TabSwitcher</text><rect width="110" height="30" x="330" y="100" fill="#fff" stroke="#d2d2d7" rx="6"/><text x="385" y="120" fill="#1d1d1f" font-family="-apple-system, Helvetica" font-size="11" text-anchor="middle">AddressBar</text><rect width="110" height="30" x="460" y="100" fill="#fff" stroke="#d2d2d7" rx="6"/><text x="515" y="120" fill="#1d1d1f" font-family="-apple-system, Helvetica" font-size="11" text-anchor="middle">Settings</text><rect width="130" height="30" x="590" y="100" fill="#fff" stroke="#d2d2d7" rx="6"/><text x="655" y="120" fill="#1d1d1f" font-family="-apple-system, Helvetica" font-size="11" text-anchor="middle">Bookmarks/History</text><path stroke="#86868b" stroke-width="1.5" marker-end="url(#a)" d="M400 140v30"/><rect width="500" height="80" x="150" y="170" fill="#e8f4fd" stroke="#0071e3" stroke-width="1.5" rx="12"/><text x="400" y="195" fill="#0071e3" font-family="-apple-system, Helvetica" font-size="13" font-weight="600" text-anchor="middle">WebKit (WKWebView)</text><rect width="130" height="30" x="180" y="210" fill="#fff" stroke="#0071e3" rx="6"/><text x="245" y="230" fill="#1d1d1f" font-family="-apple-system, Helvetica" font-size="11" text-anchor="middle">Page Rendering</text><rect width="130" height="30" x="330" y="210" fill="#fff" stroke="#0071e3" rx="6"/><text x="395" y="230" fill="#1d1d1f" font-family="-apple-system, Helvetica" font-size="11" text-anchor="middle">Content Blocker</text><rect width="130" height="30" x="480" y="210" fill="#fff" stroke="#0071e3" rx="6"/><text x="545" y="230" fill="#1d1d1f" font-family="-apple-system, Helvetica" font-size="11" text-anchor="middle">Network Stack</text><path stroke="#86868b" stroke-width="1.5" marker-end="url(#a)" d="M400 250v30"/><rect width="600" height="80" x="100" y="280" fill="#f0faf0" stroke="#28c840" stroke-width="1.5" rx="12"/><text x="400" y="305" fill="#1d1d1f" font-family="-apple-system, Helvetica" font-size="13" font-weight="600" text-anchor="middle">State (@Observable AppState)</text><rect width="100" height="30" x="130" y="315" fill="#fff" stroke="#28c840" rx="6"/><text x="180" y="335" fill="#1d1d1f" font-family="-apple-system, Helvetica" font-size="11" text-anchor="middle">TabManager</text><rect width="100" height="30" x="250" y="315" fill="#fff" stroke="#28c840" rx="6"/><text x="300" y="335" fill="#1d1d1f" font-family="-apple-system, Helvetica" font-size="11" text-anchor="middle">Bookmarks</text><rect width="100" height="30" x="370" y="315" fill="#fff" stroke="#28c840" rx="6"/><text x="420" y="335" fill="#1d1d1f" font-family="-apple-system, Helvetica" font-size="11" text-anchor="middle">History</text><rect width="120" height="30" x="490" y="315" fill="#fff" stroke="#28c840" rx="6"/><text x="550" y="335" fill="#1d1d1f" font-family="-apple-system, Helvetica" font-size="11" text-anchor="middle">PrivacyManager</text><path stroke="#86868b" stroke-width="1.5" marker-end="url(#a)" d="M400 360v30"/><rect width="500" height="60" x="150" y="390" fill="#fff8f0" stroke="#ff9500" stroke-width="1.5" rx="12"/><text x="400" y="415" fill="#1d1d1f" font-family="-apple-system, Helvetica" font-size="13" font-weight="600" text-anchor="middle">Persistence (JSON Files)</text><rect width="120" height="20" x="180" y="425" fill="#fff" stroke="#ff9500" rx="4"/><text x="240" y="439" fill="#1d1d1f" font-family="-apple-system, Helvetica" font-size="10" text-anchor="middle">browser_data.json</text><rect width="120" height="20" x="320" y="425" fill="#fff" stroke="#ff9500" rx="4"/><text x="380" y="439" fill="#1d1d1f" font-family="-apple-system, Helvetica" font-size="10" text-anchor="middle">preferences.json</text><rect width="160" height="20" x="460" y="425" fill="#fff" stroke="#ff9500" rx="4"/><text x="540" y="439" fill="#1d1d1f" font-family="-apple-system, Helvetica" font-size="10" text-anchor="middle">crash_recovery.json</text><defs><marker id="a" markerHeight="6" markerWidth="8" orient="auto" refX="8" refY="3"><path fill="#86868b" d="m0 0 8 3-8 3"/></marker></defs></svg>